<svg xmlns="http://www.w3.org/2000/svg" viewBox="0 0 1080 1350" width="1080" height="1350">
  <defs>
    <linearGradient id="bg" x1="0" y1="0" x2="0" y2="1">
      <stop offset="0%" stop-color="#07070E"/>
      <stop offset="100%" stop-color="#0F0F1C"/>
    </linearGradient>
    <linearGradient id="brand" x1="0" y1="0" x2="1" y2="0">
      <stop offset="0%" stop-color="#3E82F7"/>
      <stop offset="100%" stop-color="#6DAFF9"/>
    </linearGradient>
  </defs>
  <rect width="1080" height="1350" fill="url(#bg)"/>
  <rect x="0" y="0" width="1080" height="3" fill="url(#brand)"/>

  <!-- Logo pill -->
  <rect x="72" y="54" width="210" height="40" rx="20" fill="#0F0F1C"/>
  <circle cx="95" cy="74" r="10" fill="#3E82F7"/>
  <text x="168" y="80" font-family="'Helvetica Neue', Helvetica, Arial, sans-serif" font-size="19" text-anchor="middle" fill="#F2F2F6"><tspan font-weight="300">smart</tspan><tspan font-weight="700">base</tspan></text>
  <text x="1008" y="80" text-anchor="end" font-family="'Helvetica Neue', Helvetica, Arial, sans-serif"
        font-size="24" fill="#7A7A96">17.04.2026</text>
  <line x1="72" y1="110" x2="1008" y2="110" stroke="#1A1A2E" stroke-width="1"/>

  <!-- Recap list -->
  <text x="72" y="238" font-family="'Helvetica Neue', Helvetica, Arial, sans-serif" font-size="32" fill="#7A7A96">você aprendeu:</text>

  <rect x="72" y="268" width="936" height="74" rx="12" fill="#0F0F1C"/>
  <rect x="72" y="268" width="5" height="74" rx="3" fill="url(#brand)"/>
  <text x="118" y="314" font-family="'Helvetica Neue', Helvetica, Arial, sans-serif" font-size="30" fill="#F2F2F6">01 — teclado como trackpad</text>

  <rect x="72" y="356" width="936" height="74" rx="12" fill="#0F0F1C"/>
  <rect x="72" y="356" width="5" height="74" rx="3" fill="url(#brand)"/>
  <text x="118" y="402" font-family="'Helvetica Neue', Helvetica, Arial, sans-serif" font-size="30" fill="#F2F2F6">02 — spotlight: busca universal</text>

  <rect x="72" y="444" width="936" height="74" rx="12" fill="#0F0F1C"/>
  <rect x="72" y="444" width="5" height="74" rx="3" fill="url(#brand)"/>
  <text x="118" y="490" font-family="'Helvetica Neue', Helvetica, Arial, sans-serif" font-size="30" fill="#F2F2F6">03 — back tap: toque nas costas</text>

  <rect x="72" y="532" width="936" height="74" rx="12" fill="#0F0F1C"/>
  <rect x="72" y="532" width="5" height="74" rx="3" fill="#AF52DE"/>
  <text x="118" y="578" font-family="'Helvetica Neue', Helvetica, Arial, sans-serif" font-size="30" fill="#F2F2F6">04 — modo foco personalizável</text>

  <rect x="72" y="620" width="936" height="74" rx="12" fill="#0F0F1C"/>
  <rect x="72" y="620" width="5" height="74" rx="3" fill="url(#brand)"/>
  <text x="118" y="666" font-family="'Helvetica Neue', Helvetica, Arial, sans-serif" font-size="30" fill="#F2F2F6">05 — qr code pela câmera nativa</text>

  <!-- CTA headline -->
  <text x="540" y="816" font-family="'Helvetica Neue', Helvetica, Arial, sans-serif"
        font-size="64" font-weight="800" fill="#F2F2F6" text-anchor="middle">salva esse</text>
  <text x="540" y="896" font-family="'Helvetica Neue', Helvetica, Arial, sans-serif"
        font-size="64" font-weight="800" fill="#3E82F7" text-anchor="middle">carrossel</text>

  <text x="540" y="968" font-family="'Helvetica Neue', Helvetica, Arial, sans-serif" font-size="32" fill="#7A7A96" text-anchor="middle">para consultar sempre que precisar.</text>

  <!-- Question CTA -->
  <rect x="72" y="1032" width="936" height="118" rx="20" fill="#0F0F1C" stroke="#1A1A2E" stroke-width="1"/>
  <text x="540" y="1082" font-family="'Helvetica Neue', Helvetica, Arial, sans-serif" font-size="30" fill="#C0C0D0" text-anchor="middle">qual dessas 5 você não conhecia?</text>
  <text x="540" y="1128" font-family="'Helvetica Neue', Helvetica, Arial, sans-serif" font-size="32" font-weight="700" fill="#3E82F7" text-anchor="middle">comenta aqui embaixo 👇</text>

  <!-- Brand footer banner -->
  <rect x="72" y="1202" width="936" height="88" rx="16" fill="url(#brand)"/>
  <text x="540" y="1256" font-family="'Helvetica Neue', Helvetica, Arial, sans-serif"
        font-size="30" font-weight="700" fill="#F2F2F6" text-anchor="middle">@smartbase.cxs · sua loja apple em cxs</text>

  <!-- Footer -->
  <text x="1008" y="1332" text-anchor="end" font-family="'Helvetica Neue', Helvetica, Arial, sans-serif" font-size="26" fill="#4A4A60">7 / 7</text>
</svg>
