<svg xmlns="http://www.w3.org/2000/svg" viewBox="0 0 1080 1350" width="1080" height="1350">
  <defs>
    <style>@import url('https://fonts.googleapis.com/css2?family=Bricolage+Grotesque:opsz,wght@12..96,700;12..96,800&amp;family=Inter:wght@300;400;500;600&amp;display=swap');</style>
  </defs>
  <rect width="1080" height="1350" fill="#07070E"/>
  <rect x="0" y="0" width="4" height="1350" fill="#3E82F7"/>

  <!-- Ghost number -->
  <text x="-30" y="960" font-family="'Bricolage Grotesque', sans-serif" font-size="700" font-weight="800" fill="#F2F2F6" opacity="0.03">5</text>

  <rect x="80" y="72" width="130" height="40" rx="20" fill="#0F0F1C" stroke="#6DAFF9" stroke-width="1"/>
  <text x="145" y="97" font-family="'Inter', sans-serif" font-size="15" font-weight="600" fill="#6DAFF9" text-anchor="middle" letter-spacing="2">DICAS</text>
  <text x="1000" y="97" font-family="'Inter', sans-serif" font-size="20" fill="#4A4A60" text-anchor="end">6 / 7</text>

  <!-- Number badge -->
  <circle cx="130" cy="232" r="54" fill="#3E82F7"/>
  <text x="130" y="250" font-family="'Bricolage Grotesque', sans-serif" font-size="52" font-weight="800" fill="#F2F2F6" text-anchor="middle">5</text>

  <text x="80" y="370" font-family="'Bricolage Grotesque', sans-serif" font-size="88" font-weight="800" fill="#F2F2F6">qr code</text>
  <text x="80" y="468" font-family="'Bricolage Grotesque', sans-serif" font-size="88" font-weight="800" fill="#3E82F7">pela câmera.</text>
  <line x1="80" y1="514" x2="1000" y2="514" stroke="#1A1A2E" stroke-width="1"/>

  <!-- QR Code visual centered -->
  <rect x="300" y="554" width="480" height="480" rx="24" fill="#0F0F1C"/>

  <!-- QR code pattern (stylized) -->
  <!-- Top-left finder -->
  <rect x="340" y="594" width="110" height="110" rx="10" fill="#F2F2F6"/>
  <rect x="358" y="612" width="74" height="74" rx="6" fill="#0F0F1C"/>
  <rect x="372" y="626" width="46" height="46" rx="3" fill="#F2F2F6"/>

  <!-- Top-right finder -->
  <rect x="630" y="594" width="110" height="110" rx="10" fill="#F2F2F6"/>
  <rect x="648" y="612" width="74" height="74" rx="6" fill="#0F0F1C"/>
  <rect x="662" y="626" width="46" height="46" rx="3" fill="#F2F2F6"/>

  <!-- Bottom-left finder -->
  <rect x="340" y="834" width="110" height="110" rx="10" fill="#F2F2F6"/>
  <rect x="358" y="852" width="74" height="74" rx="6" fill="#0F0F1C"/>
  <rect x="372" y="866" width="46" height="46" rx="3" fill="#F2F2F6"/>

  <!-- Middle dots pattern -->
  <rect x="474" y="594" width="18" height="18" rx="3" fill="#F2F2F6"/>
  <rect x="502" y="614" width="18" height="18" rx="3" fill="#F2F2F6"/>
  <rect x="530" y="594" width="18" height="18" rx="3" fill="#F2F2F6"/>
  <rect x="558" y="614" width="18" height="18" rx="3" fill="#F2F2F6"/>
  <rect x="474" y="660" width="18" height="18" rx="3" fill="#F2F2F6"/>
  <rect x="530" y="680" width="18" height="18" rx="3" fill="#F2F2F6"/>
  <rect x="474" y="726" width="18" height="18" rx="3" fill="#F2F2F6"/>
  <rect x="510" y="744" width="18" height="18" rx="3" fill="#F2F2F6"/>
  <rect x="546" y="726" width="18" height="18" rx="3" fill="#F2F2F6"/>
  <rect x="582" y="760" width="18" height="18" rx="3" fill="#F2F2F6"/>
  <rect x="618" y="726" width="18" height="18" rx="3" fill="#F2F2F6"/>
  <rect x="474" y="800" width="18" height="18" rx="3" fill="#F2F2F6"/>
  <rect x="520" y="820" width="18" height="18" rx="3" fill="#F2F2F6"/>
  <rect x="560" y="800" width="18" height="18" rx="3" fill="#F2F2F6"/>
  <rect x="608" y="820" width="18" height="18" rx="3" fill="#F2F2F6"/>
  <rect x="630" y="740" width="18" height="18" rx="3" fill="#F2F2F6"/>
  <rect x="660" y="760" width="18" height="18" rx="3" fill="#F2F2F6"/>
  <rect x="650" y="800" width="18" height="18" rx="3" fill="#F2F2F6"/>
  <rect x="680" y="820" width="18" height="18" rx="3" fill="#F2F2F6"/>

  <!-- Scan corner overlays -->
  <path d="M 290 544 L 248 544 L 248 592" stroke="#3E82F7" stroke-width="4" fill="none" stroke-linecap="round"/>
  <path d="M 790 544 L 832 544 L 832 592" stroke="#3E82F7" stroke-width="4" fill="none" stroke-linecap="round"/>
  <path d="M 290 1044 L 248 1044 L 248 996" stroke="#3E82F7" stroke-width="4" fill="none" stroke-linecap="round"/>
  <path d="M 790 1044 L 832 1044 L 832 996" stroke="#3E82F7" stroke-width="4" fill="none" stroke-linecap="round"/>

  <text x="80" y="1104" font-family="'Inter', sans-serif" font-size="30" fill="#C0C0D0">aponte a câmera — sem app extra.</text>
  <text x="80" y="1144" font-family="'Inter', sans-serif" font-size="30" fill="#C0C0D0">o link aparece automaticamente</text>
  <text x="80" y="1184" font-family="'Inter', sans-serif" font-size="30" fill="#C0C0D0">no topo da tela.</text>

  <text x="80" y="1232" font-family="'Inter', sans-serif" font-size="30" fill="#7A7A96">funciona com links, wi-fi, pix, cardápios</text>
  <text x="80" y="1210" font-family="'Inter', sans-serif" font-size="30" font-weight="600" fill="#3E82F7">e muito mais — sem instalar nada.</text>

  <line x1="80" y1="1258" x2="1000" y2="1258" stroke="#1A1A2E" stroke-width="1"/>
  <rect x="80" y="1276" width="96" height="30" rx="15" fill="#0F0F1C"/>
  <text x="128" y="1297" font-family="'Inter', sans-serif" font-size="13" fill="#3E82F7" text-anchor="middle" font-weight="600">sb</text>
  <text x="194" y="1297" font-family="'Bricolage Grotesque', sans-serif" font-size="28" fill="#F2F2F6"><tspan font-weight="300">smart</tspan><tspan font-weight="700">base</tspan></text>
  <text x="1000" y="1297" font-family="'Inter', sans-serif" font-size="22" fill="#4A4A60" text-anchor="end">@smartbase.cxs</text>
</svg>
