<svg xmlns="http://www.w3.org/2000/svg" viewBox="0 0 1080 1350" width="1080" height="1350">
  <defs>
    <style>@import url('https://fonts.googleapis.com/css2?family=Bricolage+Grotesque:opsz,wght@12..96,700;12..96,800&amp;family=Inter:wght@300;400;500;600&amp;display=swap');</style>
  </defs>
  <rect width="1080" height="1350" fill="#07070E"/>
  <rect x="0" y="0" width="4" height="1350" fill="#3E82F7"/>

  <rect x="80" y="72" width="160" height="40" rx="20" fill="#0F0F1C" stroke="#3E82F7" stroke-width="1"/>
  <text x="160" y="97" font-family="'Inter', sans-serif" font-size="15" font-weight="600" fill="#3E82F7" text-anchor="middle" letter-spacing="2">TRADE-IN</text>
  <text x="1000" y="97" font-family="'Inter', sans-serif" font-size="20" fill="#4A4A60" text-anchor="end">3 / 6</text>

  <text x="80" y="240" font-family="'Bricolage Grotesque', sans-serif" font-size="88" font-weight="800" fill="#F2F2F6">o que afeta</text>
  <text x="80" y="340" font-family="'Bricolage Grotesque', sans-serif" font-size="88" font-weight="800" fill="#3E82F7">o valor.</text>
  <line x1="80" y1="386" x2="1000" y2="386" stroke="#1A1A2E" stroke-width="1"/>
  <text x="80" y="430" font-family="'Inter', sans-serif" font-size="26" fill="#7A7A96">4 critérios que avaliamos em todo aparelho.</text>

  <rect x="80" y="476" width="440" height="240" rx="16" fill="#0F0F1C"/>
  <text x="130" y="552" font-family="'Bricolage Grotesque', sans-serif" font-size="52" font-weight="800" fill="#F2F2F6">tela</text>
  <line x1="130" y1="568" x2="480" y2="568" stroke="#1A1A2E" stroke-width="1"/>
  <text x="130" y="606" font-family="'Inter', sans-serif" font-size="24" fill="#7A7A96">trincas, manchas e pixels mortos</text>
  <text x="472" y="700" font-family="'Inter', sans-serif" font-size="46" text-anchor="end">📱</text>

  <rect x="560" y="476" width="440" height="240" rx="16" fill="#0F0F1C"/>
  <text x="610" y="552" font-family="'Bricolage Grotesque', sans-serif" font-size="52" font-weight="800" fill="#F2F2F6">bateria</text>
  <line x1="610" y1="568" x2="960" y2="568" stroke="#1A1A2E" stroke-width="1"/>
  <text x="610" y="606" font-family="'Inter', sans-serif" font-size="24" fill="#7A7A96">% de saúde da bateria</text>
  <text x="952" y="700" font-family="'Inter', sans-serif" font-size="46" text-anchor="end">🔋</text>

  <rect x="80" y="736" width="440" height="240" rx="16" fill="#0F0F1C"/>
  <text x="130" y="812" font-family="'Bricolage Grotesque', sans-serif" font-size="52" font-weight="800" fill="#F2F2F6">câmera</text>
  <line x1="130" y1="828" x2="480" y2="828" stroke="#1A1A2E" stroke-width="1"/>
  <text x="130" y="866" font-family="'Inter', sans-serif" font-size="24" fill="#7A7A96">lentes, foco e gravação</text>
  <text x="472" y="960" font-family="'Inter', sans-serif" font-size="46" text-anchor="end">📷</text>

  <rect x="560" y="736" width="440" height="240" rx="16" fill="#0F0F1C"/>
  <text x="610" y="812" font-family="'Bricolage Grotesque', sans-serif" font-size="52" font-weight="800" fill="#F2F2F6">carcaça</text>
  <line x1="610" y1="828" x2="960" y2="828" stroke="#1A1A2E" stroke-width="1"/>
  <text x="610" y="866" font-family="'Inter', sans-serif" font-size="24" fill="#7A7A96">amassados e arranhões</text>
  <text x="952" y="960" font-family="'Inter', sans-serif" font-size="46" text-anchor="end">🔲</text>

  <line x1="80" y1="1036" x2="1000" y2="1036" stroke="#1A1A2E" stroke-width="1"/>
  <text x="540" y="1092" font-family="'Inter', sans-serif" font-size="24" fill="#4A4A60" text-anchor="middle">aparelho original apple = valor mais alto garantido</text>

  <line x1="80" y1="1258" x2="1000" y2="1258" stroke="#1A1A2E" stroke-width="1"/>
  <rect x="80" y="1276" width="96" height="30" rx="15" fill="#0F0F1C"/>
  <text x="128" y="1297" font-family="'Inter', sans-serif" font-size="13" fill="#3E82F7" text-anchor="middle" font-weight="600">sb</text>
  <text x="194" y="1297" font-family="'Bricolage Grotesque', sans-serif" font-size="28" fill="#F2F2F6"><tspan font-weight="300">smart</tspan><tspan font-weight="700">base</tspan></text>
  <text x="1000" y="1297" font-family="'Inter', sans-serif" font-size="22" fill="#4A4A60" text-anchor="end">@smartbase.cxs</text>
</svg>
